<?xml version="1.0" encoding="UTF-8" standalone="no"?>
<!DOCTYPE svg PUBLIC "-//W3C//DTD SVG 1.1//EN"
 "http://www.w3.org/Graphics/SVG/1.1/DTD/svg11.dtd">
<!-- Generated by graphviz version 15.1.0 (20260618.0150)
 -->
<!-- Title: G Pages: 1 -->
<svg width="822pt" height="926pt"
 viewBox="0.00 0.00 822.00 926.00" xmlns="http://www.w3.org/2000/svg" xmlns:xlink="http://www.w3.org/1999/xlink">
<g id="graph0" class="graph" transform="scale(1 1) rotate(0) translate(21.6 904.35)">
<title>G</title>
<polygon fill="#111111" stroke="none" points="-21.6,21.6 -21.6,-904.35 800.1,-904.35 800.1,21.6 -21.6,21.6"/>
<!-- ../../../packages/contracts/dist/index.d.ts -->
<g id="node1" class="node">
<title>../../../packages/contracts/dist/index.d.ts</title>
<path fill="none" stroke="#cfffac" d="M770.58,-44.75C770.58,-44.75 534.17,-44.75 534.17,-44.75 530.21,-44.75 526.25,-40.79 526.25,-36.83 526.25,-36.83 526.25,-28.92 526.25,-28.92 526.25,-24.96 530.21,-21 534.17,-21 534.17,-21 770.58,-21 770.58,-21 774.54,-21 778.5,-24.96 778.5,-28.92 778.5,-28.92 778.5,-36.83 778.5,-36.83 778.5,-40.79 774.54,-44.75 770.58,-44.75"/>
<text xml:space="preserve" text-anchor="middle" x="652.38" y="-27.45" font-family="Arial" font-size="14.00" fill="#cfffac">../../../packages/contracts/dist/index.d.ts</text>
</g>
<!-- app/globals.css -->
<g id="node2" class="node">
<title>app/globals.css</title>
<path fill="none" stroke="#cfffac" d="M429.08,-107.75C429.08,-107.75 335.92,-107.75 335.92,-107.75 331.96,-107.75 328,-103.79 328,-99.83 328,-99.83 328,-91.92 328,-91.92 328,-87.96 331.96,-84 335.92,-84 335.92,-84 429.08,-84 429.08,-84 433.04,-84 437,-87.96 437,-91.92 437,-91.92 437,-99.83 437,-99.83 437,-103.79 433.04,-107.75 429.08,-107.75"/>
<text xml:space="preserve" text-anchor="middle" x="382.5" y="-90.45" font-family="Arial" font-size="14.00" fill="#cfffac">app/globals.css</text>
</g>
<!-- app/layout.tsx -->
<g id="node3" class="node">
<title>app/layout.tsx</title>
<path fill="none" stroke="#c6c5fe" d="M161.08,-107.75C161.08,-107.75 77.67,-107.75 77.67,-107.75 73.71,-107.75 69.75,-103.79 69.75,-99.83 69.75,-99.83 69.75,-91.92 69.75,-91.92 69.75,-87.96 73.71,-84 77.67,-84 77.67,-84 161.08,-84 161.08,-84 165.04,-84 169,-87.96 169,-91.92 169,-91.92 169,-99.83 169,-99.83 169,-103.79 165.04,-107.75 161.08,-107.75"/>
<text xml:space="preserve" text-anchor="middle" x="119.38" y="-90.45" font-family="Arial" font-size="14.00" fill="#c6c5fe">app/layout.tsx</text>
</g>
<!-- app/layout.tsx&#45;&gt;app/globals.css -->
<g id="edge1" class="edge">
<title>app/layout.tsx&#45;&gt;app/globals.css</title>
<path fill="none" stroke="#757575" d="M169.49,-95.88C211.03,-95.88 270.88,-95.88 316.41,-95.88"/>
<polygon fill="#757575" stroke="#757575" points="316.14,-99.38 326.14,-95.88 316.14,-92.38 316.14,-99.38"/>
</g>
<!-- app/login/page.tsx -->
<g id="node4" class="node">
<title>app/login/page.tsx</title>
<path fill="none" stroke="#cfffac" d="M174.21,-149.75C174.21,-149.75 64.54,-149.75 64.54,-149.75 60.58,-149.75 56.62,-145.79 56.62,-141.83 56.62,-141.83 56.62,-133.92 56.62,-133.92 56.62,-129.96 60.58,-126 64.54,-126 64.54,-126 174.21,-126 174.21,-126 178.17,-126 182.12,-129.96 182.12,-133.92 182.12,-133.92 182.12,-141.83 182.12,-141.83 182.12,-145.79 178.17,-149.75 174.21,-149.75"/>
<text xml:space="preserve" text-anchor="middle" x="119.38" y="-132.45" font-family="Arial" font-size="14.00" fill="#cfffac">app/login/page.tsx</text>
</g>
<!-- app/page.tsx -->
<g id="node5" class="node">
<title>app/page.tsx</title>
<path fill="none" stroke="#cfffac" d="M158.08,-191.75C158.08,-191.75 80.67,-191.75 80.67,-191.75 76.71,-191.75 72.75,-187.79 72.75,-183.83 72.75,-183.83 72.75,-175.92 72.75,-175.92 72.75,-171.96 76.71,-168 80.67,-168 80.67,-168 158.08,-168 158.08,-168 162.04,-168 166,-171.96 166,-175.92 166,-175.92 166,-183.83 166,-183.83 166,-187.79 162.04,-191.75 158.08,-191.75"/>
<text xml:space="preserve" text-anchor="middle" x="119.38" y="-174.45" font-family="Arial" font-size="14.00" fill="#cfffac">app/page.tsx</text>
</g>
<!-- app/register/page.tsx -->
<g id="node6" class="node">
<title>app/register/page.tsx</title>
<path fill="none" stroke="#cfffac" d="M182.46,-233.75C182.46,-233.75 56.29,-233.75 56.29,-233.75 52.33,-233.75 48.38,-229.79 48.38,-225.83 48.38,-225.83 48.38,-217.92 48.38,-217.92 48.38,-213.96 52.33,-210 56.29,-210 56.29,-210 182.46,-210 182.46,-210 186.42,-210 190.38,-213.96 190.38,-217.92 190.38,-217.92 190.38,-225.83 190.38,-225.83 190.38,-229.79 186.42,-233.75 182.46,-233.75"/>
<text xml:space="preserve" text-anchor="middle" x="119.38" y="-216.45" font-family="Arial" font-size="14.00" fill="#cfffac">app/register/page.tsx</text>
</g>
<!-- components/common/auth&#45;status.tsx -->
<g id="node7" class="node">
<title>components/common/auth&#45;status.tsx</title>
<path fill="none" stroke="#cfffac" d="M230.83,-275.75C230.83,-275.75 7.92,-275.75 7.92,-275.75 3.96,-275.75 0,-271.79 0,-267.83 0,-267.83 0,-259.92 0,-259.92 0,-255.96 3.96,-252 7.92,-252 7.92,-252 230.83,-252 230.83,-252 234.79,-252 238.75,-255.96 238.75,-259.92 238.75,-259.92 238.75,-267.83 238.75,-267.83 238.75,-271.79 234.79,-275.75 230.83,-275.75"/>
<text xml:space="preserve" text-anchor="middle" x="119.38" y="-258.45" font-family="Arial" font-size="14.00" fill="#cfffac">components/common/auth&#45;status.tsx</text>
</g>
<!-- components/guards/auth&#45;guard.tsx -->
<g id="node8" class="node">
<title>components/guards/auth&#45;guard.tsx</title>
<path fill="none" stroke="#cfffac" d="M224.08,-317.75C224.08,-317.75 14.67,-317.75 14.67,-317.75 10.71,-317.75 6.75,-313.79 6.75,-309.83 6.75,-309.83 6.75,-301.92 6.75,-301.92 6.75,-297.96 10.71,-294 14.67,-294 14.67,-294 224.08,-294 224.08,-294 228.04,-294 232,-297.96 232,-301.92 232,-301.92 232,-309.83 232,-309.83 232,-313.79 228.04,-317.75 224.08,-317.75"/>
<text xml:space="preserve" text-anchor="middle" x="119.38" y="-300.45" font-family="Arial" font-size="14.00" fill="#cfffac">components/guards/auth&#45;guard.tsx</text>
</g>
<!-- hooks/use&#45;async&#45;action.ts -->
<g id="node9" class="node">
<title>hooks/use&#45;async&#45;action.ts</title>
<path fill="none" stroke="#cfffac" d="M197.46,-359.75C197.46,-359.75 41.29,-359.75 41.29,-359.75 37.33,-359.75 33.38,-355.79 33.38,-351.83 33.38,-351.83 33.38,-343.92 33.38,-343.92 33.38,-339.96 37.33,-336 41.29,-336 41.29,-336 197.46,-336 197.46,-336 201.42,-336 205.38,-339.96 205.38,-343.92 205.38,-343.92 205.38,-351.83 205.38,-351.83 205.38,-355.79 201.42,-359.75 197.46,-359.75"/>
<text xml:space="preserve" text-anchor="middle" x="119.38" y="-342.45" font-family="Arial" font-size="14.00" fill="#cfffac">hooks/use&#45;async&#45;action.ts</text>
</g>
<!-- layout/login/index.hook.ts -->
<g id="node10" class="node">
<title>layout/login/index.hook.ts</title>
<path fill="none" stroke="#cfffac" d="M458.33,-401.75C458.33,-401.75 306.67,-401.75 306.67,-401.75 302.71,-401.75 298.75,-397.79 298.75,-393.83 298.75,-393.83 298.75,-385.92 298.75,-385.92 298.75,-381.96 302.71,-378 306.67,-378 306.67,-378 458.33,-378 458.33,-378 462.29,-378 466.25,-381.96 466.25,-385.92 466.25,-385.92 466.25,-393.83 466.25,-393.83 466.25,-397.79 462.29,-401.75 458.33,-401.75"/>
<text xml:space="preserve" text-anchor="middle" x="382.5" y="-384.45" font-family="Arial" font-size="14.00" fill="#cfffac">layout/login/index.hook.ts</text>
</g>
<!-- layout/login/index.tsx -->
<g id="node11" class="node">
<title>layout/login/index.tsx</title>
<path fill="none" stroke="#c6c5fe" d="M182.08,-401.75C182.08,-401.75 56.67,-401.75 56.67,-401.75 52.71,-401.75 48.75,-397.79 48.75,-393.83 48.75,-393.83 48.75,-385.92 48.75,-385.92 48.75,-381.96 52.71,-378 56.67,-378 56.67,-378 182.08,-378 182.08,-378 186.04,-378 190,-381.96 190,-385.92 190,-385.92 190,-393.83 190,-393.83 190,-397.79 186.04,-401.75 182.08,-401.75"/>
<text xml:space="preserve" text-anchor="middle" x="119.38" y="-384.45" font-family="Arial" font-size="14.00" fill="#c6c5fe">layout/login/index.tsx</text>
</g>
<!-- layout/login/index.tsx&#45;&gt;layout/login/index.hook.ts -->
<g id="edge2" class="edge">
<title>layout/login/index.tsx&#45;&gt;layout/login/index.hook.ts</title>
<path fill="none" stroke="#757575" d="M190.35,-389.88C220.08,-389.88 255.2,-389.88 287.17,-389.88"/>
<polygon fill="#757575" stroke="#757575" points="286.82,-393.38 296.82,-389.88 286.82,-386.38 286.82,-393.38"/>
</g>
<!-- layout/register/index.hook.ts -->
<g id="node12" class="node">
<title>layout/register/index.hook.ts</title>
<path fill="none" stroke="#cfffac" d="M466.58,-443.75C466.58,-443.75 298.42,-443.75 298.42,-443.75 294.46,-443.75 290.5,-439.79 290.5,-435.83 290.5,-435.83 290.5,-427.92 290.5,-427.92 290.5,-423.96 294.46,-420 298.42,-420 298.42,-420 466.58,-420 466.58,-420 470.54,-420 474.5,-423.96 474.5,-427.92 474.5,-427.92 474.5,-435.83 474.5,-435.83 474.5,-439.79 470.54,-443.75 466.58,-443.75"/>
<text xml:space="preserve" text-anchor="middle" x="382.5" y="-426.45" font-family="Arial" font-size="14.00" fill="#cfffac">layout/register/index.hook.ts</text>
</g>
<!-- layout/register/index.tsx -->
<g id="node13" class="node">
<title>layout/register/index.tsx</title>
<path fill="none" stroke="#c6c5fe" d="M190.33,-443.75C190.33,-443.75 48.42,-443.75 48.42,-443.75 44.46,-443.75 40.5,-439.79 40.5,-435.83 40.5,-435.83 40.5,-427.92 40.5,-427.92 40.5,-423.96 44.46,-420 48.42,-420 48.42,-420 190.33,-420 190.33,-420 194.29,-420 198.25,-423.96 198.25,-427.92 198.25,-427.92 198.25,-435.83 198.25,-435.83 198.25,-439.79 194.29,-443.75 190.33,-443.75"/>
<text xml:space="preserve" text-anchor="middle" x="119.38" y="-426.45" font-family="Arial" font-size="14.00" fill="#c6c5fe">layout/register/index.tsx</text>
</g>
<!-- layout/register/index.tsx&#45;&gt;layout/register/index.hook.ts -->
<g id="edge3" class="edge">
<title>layout/register/index.tsx&#45;&gt;layout/register/index.hook.ts</title>
<path fill="none" stroke="#757575" d="M198.72,-431.88C223.96,-431.88 252.31,-431.88 279.02,-431.88"/>
<polygon fill="#757575" stroke="#757575" points="278.84,-435.38 288.84,-431.88 278.84,-428.38 278.84,-435.38"/>
</g>
<!-- lib/api/client.ts -->
<g id="node14" class="node">
<title>lib/api/client.ts</title>
<path fill="none" stroke="#c6c5fe" d="M424.96,-524.75C424.96,-524.75 340.04,-524.75 340.04,-524.75 336.08,-524.75 332.12,-520.79 332.12,-516.83 332.12,-516.83 332.12,-508.92 332.12,-508.92 332.12,-504.96 336.08,-501 340.04,-501 340.04,-501 424.96,-501 424.96,-501 428.92,-501 432.88,-504.96 432.88,-508.92 432.88,-508.92 432.88,-516.83 432.88,-516.83 432.88,-520.79 428.92,-524.75 424.96,-524.75"/>
<text xml:space="preserve" text-anchor="middle" x="382.5" y="-507.45" font-family="Arial" font-size="14.00" fill="#c6c5fe">lib/api/client.ts</text>
</g>
<!-- lib/api/endpoints.ts -->
<g id="node15" class="node">
<title>lib/api/endpoints.ts</title>
<path fill="none" stroke="#cfffac" d="M708.33,-504.75C708.33,-504.75 596.42,-504.75 596.42,-504.75 592.46,-504.75 588.5,-500.79 588.5,-496.83 588.5,-496.83 588.5,-488.92 588.5,-488.92 588.5,-484.96 592.46,-481 596.42,-481 596.42,-481 708.33,-481 708.33,-481 712.29,-481 716.25,-484.96 716.25,-488.92 716.25,-488.92 716.25,-496.83 716.25,-496.83 716.25,-500.79 712.29,-504.75 708.33,-504.75"/>
<text xml:space="preserve" text-anchor="middle" x="652.38" y="-487.45" font-family="Arial" font-size="14.00" fill="#cfffac">lib/api/endpoints.ts</text>
</g>
<!-- lib/api/client.ts&#45;&gt;lib/api/endpoints.ts -->
<g id="edge4" class="edge">
<title>lib/api/client.ts&#45;&gt;lib/api/endpoints.ts</title>
<path fill="none" stroke="#757575" d="M433.26,-509.16C473.57,-506.15 530.99,-501.86 576.79,-498.44"/>
<polygon fill="#757575" stroke="#757575" points="576.95,-501.94 586.66,-497.71 576.43,-494.96 576.95,-501.94"/>
</g>
<!-- lib/api/services/auth.service.ts -->
<g id="node16" class="node">
<title>lib/api/services/auth.service.ts</title>
<path fill="none" stroke="#c6c5fe" d="M209.08,-504.75C209.08,-504.75 29.67,-504.75 29.67,-504.75 25.71,-504.75 21.75,-500.79 21.75,-496.83 21.75,-496.83 21.75,-488.92 21.75,-488.92 21.75,-484.96 25.71,-481 29.67,-481 29.67,-481 209.08,-481 209.08,-481 213.04,-481 217,-484.96 217,-488.92 217,-488.92 217,-496.83 217,-496.83 217,-500.79 213.04,-504.75 209.08,-504.75"/>
<text xml:space="preserve" text-anchor="middle" x="119.38" y="-487.45" font-family="Arial" font-size="14.00" fill="#c6c5fe">lib/api/services/auth.service.ts</text>
</g>
<!-- lib/api/services/auth.service.ts&#45;&gt;lib/api/client.ts -->
<g id="edge5" class="edge">
<title>lib/api/services/auth.service.ts&#45;&gt;lib/api/client.ts</title>
<path fill="none" stroke="#757575" d="M217.24,-500.29C251.73,-502.94 289.59,-505.84 320.26,-508.18"/>
<polygon fill="#757575" stroke="#757575" points="319.89,-511.67 330.13,-508.94 320.43,-504.69 319.89,-511.67"/>
</g>
<!-- lib/api/services/auth.service.ts&#45;&gt;lib/api/endpoints.ts -->
<g id="edge6" class="edge">
<title>lib/api/services/auth.service.ts&#45;&gt;lib/api/endpoints.ts</title>
<path fill="none" stroke="#757575" d="M217.14,-492.15C236.23,-492.04 256.12,-491.94 274.75,-491.88 370.53,-491.56 394.47,-491.58 490.25,-491.88 518.52,-491.96 549.58,-492.14 576.82,-492.32"/>
<polygon fill="#757575" stroke="#757575" points="576.71,-495.82 586.73,-492.38 576.76,-488.82 576.71,-495.82"/>
</g>
<!-- lib/errors/error&#45;codes.ts -->
<g id="node17" class="node">
<title>lib/errors/error&#45;codes.ts</title>
<path fill="none" stroke="#c6c5fe" d="M452.33,-65.75C452.33,-65.75 312.67,-65.75 312.67,-65.75 308.71,-65.75 304.75,-61.79 304.75,-57.83 304.75,-57.83 304.75,-49.92 304.75,-49.92 304.75,-45.96 308.71,-42 312.67,-42 312.67,-42 452.33,-42 452.33,-42 456.29,-42 460.25,-45.96 460.25,-49.92 460.25,-49.92 460.25,-57.83 460.25,-57.83 460.25,-61.79 456.29,-65.75 452.33,-65.75"/>
<text xml:space="preserve" text-anchor="middle" x="382.5" y="-48.45" font-family="Arial" font-size="14.00" fill="#c6c5fe">lib/errors/error&#45;codes.ts</text>
</g>
<!-- lib/errors/error&#45;codes.ts&#45;&gt;../../../packages/contracts/dist/index.d.ts -->
<g id="edge7" class="edge">
<title>lib/errors/error&#45;codes.ts&#45;&gt;../../../packages/contracts/dist/index.d.ts</title>
<path fill="none" stroke="#757575" d="M460.62,-47.83C477.6,-46.5 496.07,-45.05 514.61,-43.6"/>
<polygon fill="#757575" stroke="#757575" points="514.63,-47.11 524.33,-42.83 514.08,-40.13 514.63,-47.11"/>
</g>
<!-- lib/errors/index.ts -->
<g id="node18" class="node">
<title>lib/errors/index.ts</title>
<path fill="none" stroke="#c6c5fe" d="M170.83,-65.75C170.83,-65.75 67.92,-65.75 67.92,-65.75 63.96,-65.75 60,-61.79 60,-57.83 60,-57.83 60,-49.92 60,-49.92 60,-45.96 63.96,-42 67.92,-42 67.92,-42 170.83,-42 170.83,-42 174.79,-42 178.75,-45.96 178.75,-49.92 178.75,-49.92 178.75,-57.83 178.75,-57.83 178.75,-61.79 174.79,-65.75 170.83,-65.75"/>
<text xml:space="preserve" text-anchor="middle" x="119.38" y="-48.45" font-family="Arial" font-size="14.00" fill="#c6c5fe">lib/errors/index.ts</text>
</g>
<!-- lib/errors/index.ts&#45;&gt;lib/errors/error&#45;codes.ts -->
<g id="edge8" class="edge">
<title>lib/errors/index.ts&#45;&gt;lib/errors/error&#45;codes.ts</title>
<path fill="none" stroke="#757575" d="M178.98,-53.88C212.5,-53.88 255.23,-53.88 292.79,-53.88"/>
<polygon fill="#757575" stroke="#757575" points="292.75,-57.38 302.75,-53.88 292.75,-50.38 292.75,-57.38"/>
</g>
<!-- lib/storage/auth&#45;storage.ts -->
<g id="node19" class="node">
<title>lib/storage/auth&#45;storage.ts</title>
<path fill="none" stroke="#cfffac" d="M197.46,-546.75C197.46,-546.75 41.29,-546.75 41.29,-546.75 37.33,-546.75 33.38,-542.79 33.38,-538.83 33.38,-538.83 33.38,-530.92 33.38,-530.92 33.38,-526.96 37.33,-523 41.29,-523 41.29,-523 197.46,-523 197.46,-523 201.42,-523 205.38,-526.96 205.38,-530.92 205.38,-530.92 205.38,-538.83 205.38,-538.83 205.38,-542.79 201.42,-546.75 197.46,-546.75"/>
<text xml:space="preserve" text-anchor="middle" x="119.38" y="-529.45" font-family="Arial" font-size="14.00" fill="#cfffac">lib/storage/auth&#45;storage.ts</text>
</g>
<!-- lib/utils.ts -->
<g id="node20" class="node">
<title>lib/utils.ts</title>
<path fill="none" stroke="#cfffac" d="M147.21,-588.75C147.21,-588.75 91.54,-588.75 91.54,-588.75 87.58,-588.75 83.62,-584.79 83.62,-580.83 83.62,-580.83 83.62,-572.92 83.62,-572.92 83.62,-568.96 87.58,-565 91.54,-565 91.54,-565 147.21,-565 147.21,-565 151.17,-565 155.12,-568.96 155.12,-572.92 155.12,-572.92 155.12,-580.83 155.12,-580.83 155.12,-584.79 151.17,-588.75 147.21,-588.75"/>
<text xml:space="preserve" text-anchor="middle" x="119.38" y="-571.45" font-family="Arial" font-size="14.00" fill="#cfffac">lib/utils.ts</text>
</g>
<!-- lib/utils/jwt.ts -->
<g id="node21" class="node">
<title>lib/utils/jwt.ts</title>
<path fill="none" stroke="#cfffac" d="M157.33,-630.75C157.33,-630.75 81.42,-630.75 81.42,-630.75 77.46,-630.75 73.5,-626.79 73.5,-622.83 73.5,-622.83 73.5,-614.92 73.5,-614.92 73.5,-610.96 77.46,-607 81.42,-607 81.42,-607 157.33,-607 157.33,-607 161.29,-607 165.25,-610.96 165.25,-614.92 165.25,-614.92 165.25,-622.83 165.25,-622.83 165.25,-626.79 161.29,-630.75 157.33,-630.75"/>
<text xml:space="preserve" text-anchor="middle" x="119.38" y="-613.45" font-family="Arial" font-size="14.00" fill="#cfffac">lib/utils/jwt.ts</text>
</g>
<!-- lib/utils/navigation.ts -->
<g id="node22" class="node">
<title>lib/utils/navigation.ts</title>
<path fill="none" stroke="#cfffac" d="M179.83,-672.75C179.83,-672.75 58.92,-672.75 58.92,-672.75 54.96,-672.75 51,-668.79 51,-664.83 51,-664.83 51,-656.92 51,-656.92 51,-652.96 54.96,-649 58.92,-649 58.92,-649 179.83,-649 179.83,-649 183.79,-649 187.75,-652.96 187.75,-656.92 187.75,-656.92 187.75,-664.83 187.75,-664.83 187.75,-668.79 183.79,-672.75 179.83,-672.75"/>
<text xml:space="preserve" text-anchor="middle" x="119.38" y="-655.45" font-family="Arial" font-size="14.00" fill="#cfffac">lib/utils/navigation.ts</text>
</g>
<!-- providers/redux&#45;provider.tsx -->
<g id="node23" class="node">
<title>providers/redux&#45;provider.tsx</title>
<path fill="none" stroke="#cfffac" d="M202.71,-714.75C202.71,-714.75 36.04,-714.75 36.04,-714.75 32.08,-714.75 28.12,-710.79 28.12,-706.83 28.12,-706.83 28.12,-698.92 28.12,-698.92 28.12,-694.96 32.08,-691 36.04,-691 36.04,-691 202.71,-691 202.71,-691 206.67,-691 210.62,-694.96 210.62,-698.92 210.62,-698.92 210.62,-706.83 210.62,-706.83 210.62,-710.79 206.67,-714.75 202.71,-714.75"/>
<text xml:space="preserve" text-anchor="middle" x="119.38" y="-697.45" font-family="Arial" font-size="14.00" fill="#cfffac">providers/redux&#45;provider.tsx</text>
</g>
<!-- providers/router&#45;provider.tsx -->
<g id="node24" class="node">
<title>providers/router&#45;provider.tsx</title>
<path fill="none" stroke="#cfffac" d="M203.46,-756.75C203.46,-756.75 35.29,-756.75 35.29,-756.75 31.33,-756.75 27.38,-752.79 27.38,-748.83 27.38,-748.83 27.38,-740.92 27.38,-740.92 27.38,-736.96 31.33,-733 35.29,-733 35.29,-733 203.46,-733 203.46,-733 207.42,-733 211.38,-736.96 211.38,-740.92 211.38,-740.92 211.38,-748.83 211.38,-748.83 211.38,-752.79 207.42,-756.75 203.46,-756.75"/>
<text xml:space="preserve" text-anchor="middle" x="119.38" y="-739.45" font-family="Arial" font-size="14.00" fill="#cfffac">providers/router&#45;provider.tsx</text>
</g>
<!-- resources/constants.ts -->
<g id="node25" class="node">
<title>resources/constants.ts</title>
<path fill="none" stroke="#cfffac" d="M186.96,-798.75C186.96,-798.75 51.79,-798.75 51.79,-798.75 47.83,-798.75 43.88,-794.79 43.88,-790.83 43.88,-790.83 43.88,-782.92 43.88,-782.92 43.88,-778.96 47.83,-775 51.79,-775 51.79,-775 186.96,-775 186.96,-775 190.92,-775 194.88,-778.96 194.88,-782.92 194.88,-782.92 194.88,-790.83 194.88,-790.83 194.88,-794.79 190.92,-798.75 186.96,-798.75"/>
<text xml:space="preserve" text-anchor="middle" x="119.38" y="-781.45" font-family="Arial" font-size="14.00" fill="#cfffac">resources/constants.ts</text>
</g>
<!-- store/actions.ts -->
<g id="node26" class="node">
<title>store/actions.ts</title>
<path fill="none" stroke="#c6c5fe" d="M164.83,-882.75C164.83,-882.75 73.92,-882.75 73.92,-882.75 69.96,-882.75 66,-878.79 66,-874.83 66,-874.83 66,-866.92 66,-866.92 66,-862.96 69.96,-859 73.92,-859 73.92,-859 164.83,-859 164.83,-859 168.79,-859 172.75,-862.96 172.75,-866.92 172.75,-866.92 172.75,-874.83 172.75,-874.83 172.75,-878.79 168.79,-882.75 164.83,-882.75"/>
<text xml:space="preserve" text-anchor="middle" x="119.38" y="-865.45" font-family="Arial" font-size="14.00" fill="#c6c5fe">store/actions.ts</text>
</g>
<!-- store/slices/common/auth.slice.ts -->
<g id="node27" class="node">
<title>store/slices/common/auth.slice.ts</title>
<path fill="none" stroke="#cfffac" d="M482.33,-861.75C482.33,-861.75 282.67,-861.75 282.67,-861.75 278.71,-861.75 274.75,-857.79 274.75,-853.83 274.75,-853.83 274.75,-845.92 274.75,-845.92 274.75,-841.96 278.71,-838 282.67,-838 282.67,-838 482.33,-838 482.33,-838 486.29,-838 490.25,-841.96 490.25,-845.92 490.25,-845.92 490.25,-853.83 490.25,-853.83 490.25,-857.79 486.29,-861.75 482.33,-861.75"/>
<text xml:space="preserve" text-anchor="middle" x="382.5" y="-844.45" font-family="Arial" font-size="14.00" fill="#cfffac">store/slices/common/auth.slice.ts</text>
</g>
<!-- store/actions.ts&#45;&gt;store/slices/common/auth.slice.ts -->
<g id="edge9" class="edge">
<title>store/actions.ts&#45;&gt;store/slices/common/auth.slice.ts</title>
<path fill="none" stroke="#757575" d="M173.22,-866.63C199.21,-864.53 231.67,-861.92 263.17,-859.39"/>
<polygon fill="#757575" stroke="#757575" points="263.06,-862.91 272.75,-858.62 262.5,-855.93 263.06,-862.91"/>
</g>
<!-- store/index.ts -->
<g id="node28" class="node">
<title>store/index.ts</title>
<path fill="none" stroke="#c6c5fe" d="M159.58,-840.75C159.58,-840.75 79.17,-840.75 79.17,-840.75 75.21,-840.75 71.25,-836.79 71.25,-832.83 71.25,-832.83 71.25,-824.92 71.25,-824.92 71.25,-820.96 75.21,-817 79.17,-817 79.17,-817 159.58,-817 159.58,-817 163.54,-817 167.5,-820.96 167.5,-824.92 167.5,-824.92 167.5,-832.83 167.5,-832.83 167.5,-836.79 163.54,-840.75 159.58,-840.75"/>
<text xml:space="preserve" text-anchor="middle" x="119.38" y="-823.45" font-family="Arial" font-size="14.00" fill="#c6c5fe">store/index.ts</text>
</g>
<!-- store/index.ts&#45;&gt;store/slices/common/auth.slice.ts -->
<g id="edge10" class="edge">
<title>store/index.ts&#45;&gt;store/slices/common/auth.slice.ts</title>
<path fill="none" stroke="#757575" d="M167.97,-832.7C194.73,-834.85 229.43,-837.65 263.06,-840.35"/>
<polygon fill="#757575" stroke="#757575" points="262.65,-843.83 272.9,-841.14 263.21,-836.85 262.65,-843.83"/>
</g>
<!-- types/entities.ts -->
<g id="node29" class="node">
<title>types/entities.ts</title>
<path fill="none" stroke="#c6c5fe" d="M429.08,-23.75C429.08,-23.75 335.92,-23.75 335.92,-23.75 331.96,-23.75 328,-19.79 328,-15.83 328,-15.83 328,-7.92 328,-7.92 328,-3.96 331.96,0 335.92,0 335.92,0 429.08,0 429.08,0 433.04,0 437,-3.96 437,-7.92 437,-7.92 437,-15.83 437,-15.83 437,-19.79 433.04,-23.75 429.08,-23.75"/>
<text xml:space="preserve" text-anchor="middle" x="382.5" y="-6.45" font-family="Arial" font-size="14.00" fill="#c6c5fe">types/entities.ts</text>
</g>
<!-- types/entities.ts&#45;&gt;../../../packages/contracts/dist/index.d.ts -->
<g id="edge11" class="edge">
<title>types/entities.ts&#45;&gt;../../../packages/contracts/dist/index.d.ts</title>
<path fill="none" stroke="#757575" d="M437.39,-16.1C459.88,-17.86 487.13,-20 514.54,-22.15"/>
<polygon fill="#757575" stroke="#757575" points="514.11,-25.63 524.36,-22.92 514.66,-18.65 514.11,-25.63"/>
</g>
</g>
</svg>
